<svg width="25" height="25" viewBox="0 0 25 25" fill="none" xmlns="http://www.w3.org/2000/svg">
<path d="M10.8394 0.711386C4.86223 0.711386 0 5.35261 0 11.0581C0 16.7635 4.86223 21.4047 10.8394 21.4047C12.6666 21.4047 14.4628 20.9909 15.9803 20.1927C16.1019 20.3323 16.2367 20.461 16.3829 20.577L19.4799 23.5332C19.7659 23.8403 20.1146 24.0884 20.5046 24.2623C20.8947 24.4361 21.3179 24.5321 21.7481 24.5442C22.1784 24.5562 22.6068 24.4843 23.0069 24.3326C23.407 24.181 23.7704 23.9529 24.0748 23.6623C24.3792 23.3717 24.6181 23.0249 24.777 22.6429C24.9359 22.261 25.0113 21.8522 24.9986 21.4414C24.986 21.0307 24.8855 20.6268 24.7034 20.2544C24.5212 19.8821 24.2613 19.5492 23.9395 19.2763L20.8426 16.3201C20.6917 16.176 20.5256 16.0472 20.347 15.9358C21.1832 14.4872 21.7097 12.8022 21.7097 11.0285C21.7097 5.32304 16.8475 0.681824 10.8703 0.681824L10.8394 0.711386ZM10.8394 3.66758C15.1441 3.66758 18.5818 6.94895 18.5818 11.0581C18.5818 13.0091 17.8385 14.8124 16.5378 16.1427C16.5068 16.1723 16.4758 16.2018 16.4449 16.2314C16.2986 16.3474 16.1638 16.4761 16.0423 16.6157C14.6796 17.7982 12.8214 18.4781 10.8084 18.4781C6.50362 18.4781 3.06599 15.1967 3.06599 11.0876C3.06599 6.97851 6.50362 3.69714 10.8084 3.69714L10.8394 3.66758Z" fill="#21ADB4"/>
</svg>
