<svg width="18" height="21" viewBox="0 0 18 21" fill="none" xmlns="http://www.w3.org/2000/svg">
<path d="M7.88755 0.658163C3.70355 0.658163 0.299988 4.44656 0.299988 9.10363C0.299988 13.7607 3.70355 17.5491 7.88755 17.5491C9.16659 17.5491 10.424 17.2113 11.4862 16.5598C11.5713 16.6737 11.6656 16.7788 11.768 16.8735L13.9359 19.2865C14.1361 19.5372 14.3802 19.7397 14.6532 19.8816C14.9263 20.0235 15.2225 20.1018 15.5237 20.1117C15.8249 20.1215 16.1247 20.0628 16.4048 19.939C16.6849 19.8152 16.9393 19.629 17.1523 19.3918C17.3654 19.1547 17.5327 18.8715 17.6439 18.5598C17.7551 18.2481 17.8079 17.9143 17.799 17.5791C17.7902 17.2438 17.7198 16.9141 17.5923 16.6102C17.4648 16.3063 17.2829 16.0346 17.0577 15.8117L14.8898 13.3988C14.7842 13.2812 14.6679 13.1761 14.5429 13.0851C15.1282 11.9027 15.4968 10.5273 15.4968 9.0795C15.4968 4.42243 12.0932 0.634033 7.90922 0.634033L7.88755 0.658163ZM7.88755 3.07115C10.9009 3.07115 13.3072 5.74957 13.3072 9.10363C13.3072 10.6962 12.7869 12.1681 11.8764 13.254C11.8548 13.2781 11.8331 13.3022 11.8114 13.3264C11.709 13.4211 11.6147 13.5261 11.5296 13.6401C10.5757 14.6053 9.27498 15.1602 7.86587 15.1602C4.85252 15.1602 2.44618 12.4818 2.44618 9.12776C2.44618 5.7737 4.85252 3.09528 7.86587 3.09528L7.88755 3.07115Z" fill="#21ADB4"/>
</svg>
